<mxfile host="app.diagrams.net" agent="Mozilla/5.0 (Windows NT 10.0; Win64; x64) AppleWebKit/537.36 (KHTML, like Gecko) Chrome/134.0.0.0 Safari/537.36" version="26.1.0">
  <diagram name="Strona-1" id="GtKuwoUM9BS78JBKEteD">
    <mxGraphModel dx="1434" dy="778" grid="1" gridSize="10" guides="1" tooltips="1" connect="1" arrows="1" fold="1" page="1" pageScale="1" pageWidth="827" pageHeight="1169" math="0" shadow="0">
      <root>
        <mxCell id="0" />
        <mxCell id="1" parent="0" />
        <mxCell id="KREq8-2agoi1I6AGwySA-36" style="edgeStyle=orthogonalEdgeStyle;rounded=0;orthogonalLoop=1;jettySize=auto;html=1;exitX=1;exitY=0.5;exitDx=0;exitDy=0;" edge="1" parent="1" source="KREq8-2agoi1I6AGwySA-32" target="KREq8-2agoi1I6AGwySA-35">
          <mxGeometry relative="1" as="geometry" />
        </mxCell>
        <mxCell id="KREq8-2agoi1I6AGwySA-32" value="Start gry" style="ellipse;whiteSpace=wrap;html=1;" vertex="1" parent="1">
          <mxGeometry x="270" y="260" width="120" height="80" as="geometry" />
        </mxCell>
        <mxCell id="KREq8-2agoi1I6AGwySA-34" style="edgeStyle=orthogonalEdgeStyle;rounded=0;orthogonalLoop=1;jettySize=auto;html=1;exitX=0.5;exitY=0.5;exitDx=0;exitDy=0;exitPerimeter=0;" edge="1" parent="1" source="KREq8-2agoi1I6AGwySA-33" target="KREq8-2agoi1I6AGwySA-32">
          <mxGeometry relative="1" as="geometry" />
        </mxCell>
        <mxCell id="KREq8-2agoi1I6AGwySA-33" value="Gracz&lt;div&gt;&lt;br&gt;&lt;/div&gt;" style="shape=umlActor;verticalLabelPosition=bottom;verticalAlign=top;html=1;outlineConnect=0;" vertex="1" parent="1">
          <mxGeometry x="400" y="360" width="30" height="60" as="geometry" />
        </mxCell>
        <mxCell id="KREq8-2agoi1I6AGwySA-39" value="" style="edgeStyle=orthogonalEdgeStyle;rounded=0;orthogonalLoop=1;jettySize=auto;html=1;" edge="1" parent="1" source="KREq8-2agoi1I6AGwySA-35" target="KREq8-2agoi1I6AGwySA-38">
          <mxGeometry relative="1" as="geometry" />
        </mxCell>
        <mxCell id="KREq8-2agoi1I6AGwySA-40" value="" style="edgeStyle=orthogonalEdgeStyle;rounded=0;orthogonalLoop=1;jettySize=auto;html=1;" edge="1" parent="1" source="KREq8-2agoi1I6AGwySA-35" target="KREq8-2agoi1I6AGwySA-37">
          <mxGeometry relative="1" as="geometry" />
        </mxCell>
        <mxCell id="KREq8-2agoi1I6AGwySA-35" value="Menu główne" style="ellipse;whiteSpace=wrap;html=1;aspect=fixed;" vertex="1" parent="1">
          <mxGeometry x="450" y="160" width="80" height="80" as="geometry" />
        </mxCell>
        <mxCell id="KREq8-2agoi1I6AGwySA-37" value="Poziom" style="ellipse;whiteSpace=wrap;html=1;aspect=fixed;" vertex="1" parent="1">
          <mxGeometry x="500" y="30" width="80" height="80" as="geometry" />
        </mxCell>
        <mxCell id="KREq8-2agoi1I6AGwySA-38" value="Ustawienia" style="ellipse;whiteSpace=wrap;html=1;aspect=fixed;" vertex="1" parent="1">
          <mxGeometry x="580" y="180" width="80" height="80" as="geometry" />
        </mxCell>
      </root>
    </mxGraphModel>
  </diagram>
</mxfile>
